<?xml version="1.0" encoding="utf-8"?>
<!-- Generator: Adobe Illustrator 14.0.0, SVG Export Plug-In . SVG Version: 6.00 Build 43363)  -->
<!DOCTYPE svg PUBLIC "-//W3C//DTD SVG 1.1//EN" "http://www.w3.org/Graphics/SVG/1.1/DTD/svg11.dtd">
<svg version="1.1" id="Capa_1" xmlns="http://www.w3.org/2000/svg" xmlns:xlink="http://www.w3.org/1999/xlink" x="0px" y="0px"
	 width="175.75px" height="175.75px" viewBox="0 0 175.75 175.75" enable-background="new 0 0 175.75 175.75" xml:space="preserve">
<g>
	<circle fill="#FFFFFF" cx="87.874" cy="87.876" r="85.039"/>
	<g>
		<path fill="#00632E" d="M87.874,30.721c-31.564,0-57.155,25.588-57.155,57.153c0,31.566,25.59,57.155,57.155,57.155
			s57.152-25.589,57.152-57.155C145.026,56.309,119.438,30.721,87.874,30.721z M126.603,70.421
			c-0.613,2.086-2.699,3.683-5.893,2.577c-3.191-1.104-7.732-3.928-7.732-3.928l-1.596,0.122l-0.615,0.492
			c0,0,1.533,2.333,1.658,3.252c0.123,0.922,0.186,2.21,0.186,2.21s2.025,2.578,2.393,3.621c0.367,1.045,0.551,3.438,0.551,3.438
			s1.904,2.548,2.365,4.481c0.459,1.933,0.092,6.813,0.092,6.813s0.736,2.946,0.645,4.971c-0.094,2.025-1.473,6.262-1.473,6.262
			s0.367,2.946,0,4.418c-0.369,1.474-1.566,4.78-1.566,4.78s3.498,0.561,4.512,2.678c1.014,2.119,3.314,7.734,1.566,8.838
			c-1.752,1.105-6.998,1.014-9.576-1.012s-2.578-2.025-2.578-2.025s-1.381,2.025-4.512,3.13c-3.129,1.104-4.604,1.013-4.604,1.013
			s-2.209,1.75-3.773,2.486c-1.566,0.736-3.408,1.564-3.408,1.564s0.094,4.051-1.287,5.711c-1.381,1.655-4.082,1.932-4.082,1.932
			s-2.701-0.276-4.082-1.932c-1.381-1.66-1.289-5.711-1.289-5.711s-1.844-0.828-3.408-1.564s-3.773-2.486-3.773-2.486
			s-1.475,0.091-4.604-1.013c-3.129-1.104-4.512-3.13-4.512-3.13s0,0-2.578,2.025s-7.825,2.117-9.574,1.012
			c-1.75-1.104,0.553-6.719,1.564-8.838c1.014-2.117,4.512-2.678,4.512-2.678s-1.198-3.307-1.567-4.78c-0.365-1.472,0-4.418,0-4.418
			s-1.378-4.236-1.471-6.262c-0.094-2.024,0.643-4.971,0.643-4.971s-0.368-4.88,0.094-6.813c0.458-1.934,2.361-4.481,2.361-4.481
			s0.186-2.393,0.552-3.438c0.369-1.043,2.393-3.621,2.393-3.621s0.062-1.288,0.185-2.21c0.123-0.919,1.658-3.252,1.658-3.252
			l-0.613-0.492L62.77,69.07c0,0-4.544,2.823-7.734,3.928c-3.193,1.105-5.279-0.491-5.892-2.577
			c-0.613-2.087,1.228-4.543,1.228-4.543s3.067-2.699,5.032-4.173c1.964-1.473,8.594-2.7,10.926-2.7s8.961,1.841,9.33,1.963
			c0.369,0.123,2.33-0.982,2.822-1.226c0.49-0.247,3.807-1.965,3.807-1.965s0.244-0.86,0.244-1.229c0-0.368-1.35-1.349-2.455-3.437
			c-1.104-2.087-0.613-4.174-0.734-5.646c-0.123-1.473,1.594-4.419,3.189-7.364c1.596-2.946,5.342-2.578,5.342-2.578
			s3.744-0.368,5.34,2.578c1.596,2.945,3.314,5.892,3.189,7.364c-0.121,1.473,0.371,3.559-0.734,5.646
			c-1.105,2.088-2.455,3.068-2.455,3.437c0,0.369,0.244,1.229,0.244,1.229s3.316,1.718,3.807,1.965
			c0.492,0.243,2.455,1.349,2.824,1.226c0.367-0.122,6.996-1.963,9.328-1.963s8.961,1.228,10.926,2.7
			c1.965,1.474,5.033,4.173,5.033,4.173S127.216,68.334,126.603,70.421z"/>
		<path fill-rule="evenodd" clip-rule="evenodd" fill="#00632E" d="M123.599,149.852c-0.848-3.489-2.004-6.669-2.725-10.29
			c-0.977,0.364-1.846,1.228-2.725,1.817c-12.311,8.299-38.547,9.564-53.869,3.33c-1.452-0.589-4.719-2.026-5.449-2.725
			c-1.025-0.982-2.881-2.307-3.934-2.725c-0.953,3.688-1.439,7.84-3.026,10.895c-3.015,0.318-6.287,0.373-9.08,0.909
			c-0.299,0.753,1.818,1.688,2.422,2.118c0.382,0.278,0.531,0.645,0.906,0.908c1.195,0.839,2.35,1.507,3.33,2.117
			c3.294,2.062,6.707,3.88,10.592,5.447c6.922,2.797,15.27,4.163,23.91,4.541c2.111,0.094,4.242,0.098,6.354,0
			c13.584-0.615,25.539-4.195,34.504-9.079c1.504-0.817,3.189-1.743,4.539-2.724c0.676-0.489,1.189-1.275,1.816-1.816
			c0.303-0.258,0.865-0.26,1.211-0.606c0.332-0.332,0.643-0.707,0.604-1.208C129.827,150.488,126.329,150.555,123.599,149.852z"/>
		<radialGradient id="SVGID_1_" cx="87.873" cy="87.876" r="57.1533" gradientUnits="userSpaceOnUse">
			<stop  offset="0" style="stop-color:#FFFFFF"/>
			<stop  offset="1" style="stop-color:#00632E"/>
		</radialGradient>
		<path opacity="0.82" fill-rule="evenodd" clip-rule="evenodd" fill="url(#SVGID_1_)" d="M145.026,87.874
			c0,31.566-25.588,57.155-57.152,57.155S30.719,119.44,30.719,87.874c0-31.563,25.59-57.151,57.155-57.151
			S145.026,56.312,145.026,87.874z"/>
		<circle fill="none" stroke="#00632E" stroke-width="4.1733" cx="87.873" cy="87.876" r="85.038"/>
		<g>
			<defs>
				<path id="SVGID_2_" d="M50.717,147.527l-0.658-0.38l-8.782,2.451l-5.068,1.737l-17.884-13.27L5.208,106.078V77.609l3.28-17.29
					l7.75-10.956L28.46,46.31l8.048,8.943l-4.771,13.115L28.46,80.293l1.043,22.208l4.32,8.347l8.342,14.01
					c0,0,10.564,10.508,11.309,11.104S50.717,147.527,50.717,147.527z"/>
			</defs>
			<clipPath id="SVGID_3_">
				<use xlink:href="#SVGID_2_"  overflow="visible"/>
			</clipPath>
			<path clip-path="url(#SVGID_3_)" fill-rule="evenodd" clip-rule="evenodd" fill="#00632E" d="M70.012,150.523
				c-0.302-0.76-0.967-0.801-1.734-0.648c-2.943-0.98-4.209-5.992-4.92-10.778c2.508,1.399,8.086,5.589,6.236,10.487
				c1.574,1.866,6.988,1.022,6.65-2.106c1.275,1.679,1.107,4.486,1.9,7.188c-0.77-0.78-1.254-2.115-2.17-2.617
				c-1.432,0.397-2.637,0.354-3.855,0.331c3.254,5.653-4.499,7.464-2.527,14.093c-3.367-6.084,3.818-9.197,0.34-14.385
				c-1.963,0.04-4.098-0.271-6.084,0.824c0.989,5.826-3.973,6.99-8.675,8.351c0.768-3.205,3.393-10.876,8.445-8.431
				c0.429-0.309,0.967-0.529,1.412-0.824c-3.969-0.27-6.842-2.685-11.5-1.597c0.442,5.085-5.998,5.917-10.107,5.703
				c1.09-3.032,5.776-9.743,9.952-5.929c0.355-0.296,1.046-0.331,1.594-0.478c-3.85-1.382-6.721-4.673-11.387-4.456
				c-0.428,5.256-7.928,4.024-11.031,2.941c1.736-2.734,7.867-7.86,10.848-3.289c0.611-0.137,1.091-0.02,1.75-0.256
				c-3.639-1.965-6.125-6.19-10.428-6.859c-2.008,5.174-8.707,1.723-11.656,0.112c2.564-2.292,9.683-5.562,11.475-0.458
				c0.619-0.04,1.07,0.248,1.727,0.135c-3.09-2.863-5.318-7.408-8.936-9.252c-3.512,4.412-8.844-0.633-11.575-3.383
				c4.604-1.05,9.914-2.386,11.495,3.017c0.391,0.351,0.918,0.431,1.404,0.592c-2.54-3.47-4.145-8.771-7.309-11.023
				c-4.283,3.204-8.212-2.59-10.8-6.135c4.049,0.305,9.08-0.407,10.645,3.976c0.519,1.456,0.238,2.628,1.689,2.851
				c-2.068-3.809-2.906-10.022-5.555-12.698c-4.752,2.113-7.396-4.224-9.592-8.848c3.916,1.186,9.613,2.263,9.74,8.555
				c0.319,0.671,0.772,1.072,1.266,1.401c-1.535-4.87-0.88-10.171-3.177-13.482c-4.578,0.839-6.422-5.131-7.918-10.893
				c3.276,1.742,9.313,4.582,8.065,10.603c0.3,0.641,0.687,1.112,1.014,1.708c-0.41-4.754,1.191-9.246-0.801-14.262
				c-4.367,0.266-5.591-7.708-5.757-12.656c2.813,1.963,8.492,7.564,5.906,12.366c0.285,0.788,0.688,1.354,0.917,2.248
				c0.29-4.76,2.684-7.866,1.543-13.747c-4.661-0.496-4.608-9.575-3.914-13.448c2.479,2.53,7.207,9.397,4.193,13.257
				c0.108,0.785,0.36,1.284,0.533,1.946c1.248-3.056,2.19-6.353,3.709-9.195c-2.875-5.645,1.901-9.335,4.637-12.234
				c0.378,4.994,0.65,11.813-4.176,12.391c-1.118,2.278-2.176,4.601-2.875,7.207c0.508,0.089,0.984-0.72,1.616-0.871
				c-0.271-4.906,6.4-4.842,9.619-4.048c-1.615,2.632-6.023,7.675-9.465,4.272c-3.259,1.615-3.111,5.901-3.859,9.485
				c0.416,0.222,0.557-0.644,1.004-0.737c-0.374-4.933,6.496-4.64,9.546-3.904c-1.603,2.451-6.109,7.789-9.492,4.151
				c-2.38,2.606-1.673,7.64-1.82,12.002c0.299,0.194,0.46-0.582,0.803-0.693c-1.01-4.902,4.597-5.868,8.455-5.983
				c-0.783,2.511-4.213,8.845-8.299,6.208c-2.099,2.455-0.234,8.021,0.064,12.362c0.826-0.258,0.473-1.034,0.202-1.979
				c0.402-3.961,3.982-5.423,8.016-6.532c-1.188,3.441-2.633,9.488-7.461,8.085c-1.345,2.743,1.346,8.331,2.165,11.772
				c0.945-0.479,0.096-1.305-0.027-2.057c-0.69-4.22,3.766-6.432,6.824-8.076c-0.762,3.926-1.215,10.106-6.096,9.462
				c-0.568,3.806,2.651,8.405,4.292,11.302c-2.412-5.561,1.453-8.97,4.467-11.553c0.053,4.674,0.334,10.546-4.17,10.974
				c0.811,4.535,4.049,7.31,6.286,10.221c-3.205-4.883-0.145-9.813,2.292-12.752c0.973,5.31,1.977,10.642-2.152,11.946
				c1.805,4.497,5.025,6.229,7.938,8.567c-4.018-3.574-1.877-10.542-0.026-13.146c1.67,3.986,3.62,10.895,0.04,12.239
				c2.011,4.091,5.726,4.858,8.9,6.679c-3.926-2.164-3.738-9.903-2.158-13.188c1.754,2.818,5.625,9.989,2.042,12.184
				c2.303,3.527,6.461,3.425,9.942,4.645c-0.369-1.396-1.127-0.783-1.844-1.141c-3.076-1.526-2.883-8.191-2.845-11.493
				c2.35,1.891,6.957,7.712,4.447,11.53C62.147,151.257,66.464,150.145,70.012,150.523z"/>
		</g>
		<g>
			<defs>
				<path id="SVGID_4_" d="M124.474,146.931l0.656-0.379l8.783,2.452l5.066,1.735l17.888-13.27l13.116-31.988V77.013l-3.281-17.289
					l-7.748-10.956l-12.223-3.055l-8.049,8.943l4.77,13.116l3.279,11.924l-1.045,22.21l-4.322,8.345l-8.34,14.011
					c0,0-10.563,10.508-11.309,11.104C120.972,135.962,124.474,146.931,124.474,146.931z"/>
			</defs>
			<clipPath id="SVGID_5_">
				<use xlink:href="#SVGID_4_"  overflow="visible"/>
			</clipPath>
			<path clip-path="url(#SVGID_5_)" fill-rule="evenodd" clip-rule="evenodd" fill="#00632E" d="M105.177,149.928
				c0.303-0.76,0.971-0.801,1.734-0.648c2.945-0.981,4.209-5.993,4.922-10.779c-2.508,1.401-8.086,5.589-6.236,10.488
				c-1.576,1.865-6.99,1.023-6.65-2.105c-1.275,1.678-1.109,4.485-1.898,7.189c0.768-0.783,1.254-2.118,2.166-2.619
				c1.434,0.396,2.639,0.352,3.857,0.331c-3.254,5.653,4.498,7.463,2.527,14.095c3.365-6.088-3.82-9.199-0.34-14.387
				c1.963,0.039,4.096-0.272,6.084,0.823c-0.988,5.826,3.971,6.989,8.676,8.352c-0.77-3.206-3.393-10.876-8.447-8.431
				c-0.43-0.309-0.965-0.53-1.412-0.824c3.969-0.27,6.842-2.686,11.5-1.598c-0.439,5.084,6,5.917,10.109,5.703
				c-1.09-3.033-5.779-9.742-9.951-5.928c-0.357-0.297-1.049-0.332-1.596-0.479c3.848-1.382,6.721-4.672,11.387-4.455
				c0.428,5.256,7.928,4.023,11.033,2.941c-1.738-2.736-7.871-7.861-10.85-3.29c-0.611-0.137-1.092-0.02-1.75-0.255
				c3.641-1.965,6.127-6.19,10.43-6.86c2.008,5.173,8.707,1.723,11.655,0.113c-2.563-2.294-9.683-5.563-11.474-0.459
				c-0.619-0.039-1.07,0.248-1.729,0.135c3.089-2.863,5.322-7.407,8.937-9.251c3.511,4.41,8.843-0.635,11.573-3.383
				c-4.601-1.051-9.912-2.387-11.491,3.018c-0.392,0.35-0.921,0.429-1.405,0.592c2.539-3.472,4.145-8.771,7.309-11.025
				c4.281,3.204,8.213-2.589,10.799-6.134c-4.046,0.305-9.078-0.407-10.643,3.976c-0.521,1.455-0.24,2.628-1.688,2.851
				c2.065-3.809,2.906-10.022,5.555-12.7c4.752,2.115,7.396-4.223,9.589-8.848c-3.916,1.188-9.611,2.265-9.74,8.557
				c-0.317,0.672-0.769,1.071-1.264,1.4c1.535-4.87,0.882-10.171,3.179-13.481c4.577,0.838,6.419-5.131,7.919-10.894
				c-3.277,1.742-9.313,4.583-8.068,10.604c-0.299,0.64-0.688,1.111-1.011,1.708c0.41-4.755-1.189-9.247,0.8-14.262
				c4.365,0.265,5.59-7.709,5.757-12.656c-2.812,1.962-8.49,7.564-5.905,12.365c-0.287,0.788-0.687,1.354-0.92,2.249
				c-0.288-4.761-2.682-7.867-1.542-13.746c4.659-0.497,4.608-9.576,3.915-13.448c-2.479,2.528-7.208,9.396-4.19,13.257
				c-0.11,0.785-0.366,1.284-0.538,1.946c-1.248-3.056-2.187-6.353-3.709-9.195c2.876-5.646-1.899-9.336-4.637-12.235
				c-0.375,4.994-0.648,11.813,4.179,12.392c1.114,2.277,2.175,4.601,2.874,7.207c-0.507,0.089-0.986-0.721-1.614-0.871
				c0.272-4.907-6.403-4.842-9.622-4.049c1.617,2.632,6.023,7.675,9.465,4.272c3.26,1.615,3.113,5.901,3.863,9.486
				c-0.419,0.222-0.56-0.645-1.005-0.737c0.37-4.934-6.499-4.641-9.55-3.904c1.607,2.451,6.111,7.789,9.492,4.151
				c2.385,2.605,1.678,7.64,1.821,12.002c-0.298,0.194-0.462-0.582-0.803-0.693c1.009-4.902-4.599-5.868-8.454-5.983
				c0.781,2.51,4.212,8.845,8.297,6.207c2.103,2.455,0.239,8.021-0.064,12.363c-0.826-0.258-0.47-1.034-0.199-1.979
				c-0.399-3.959-3.984-5.424-8.016-6.531c1.186,3.44,2.633,9.487,7.459,8.086c1.348,2.742-1.346,8.329-2.162,11.771
				c-0.947-0.479-0.095-1.306,0.025-2.057c0.691-4.219-3.764-6.434-6.823-8.077c0.762,3.926,1.214,10.106,6.095,9.463
				c0.57,3.806-2.649,8.406-4.29,11.301c2.411-5.562-1.452-8.97-4.468-11.552c-0.051,4.673-0.332,10.546,4.17,10.973
				c-0.809,4.536-4.049,7.311-6.283,10.221c3.206-4.883,0.145-9.813-2.293-12.751c-0.971,5.309-1.979,10.641,2.152,11.944
				c-1.807,4.498-5.027,6.229-7.938,8.569c4.018-3.575,1.877-10.542,0.023-13.146c-1.668,3.986-3.617,10.893-0.037,12.24
				c-2.014,4.09-5.727,4.857-8.9,6.677c3.926-2.164,3.738-9.903,2.156-13.187c-1.754,2.818-5.621,9.988-2.041,12.182
				c-2.303,3.528-6.463,3.428-9.941,4.646c0.367-1.396,1.125-0.784,1.842-1.141c3.076-1.525,2.883-8.192,2.848-11.492
				c-2.35,1.889-6.959,7.712-4.449,11.528C113.042,150.66,108.729,149.549,105.177,149.928z"/>
		</g>
		<g>
			<g>
				<path fill="#00441F" d="M30.366,44.725c-2.038-1.448-2.415-1.715-2.86-1.995c-0.473-0.297-0.762-0.338-1.148,0.003
					c-0.095,0.083-0.261,0.292-0.384,0.472c-0.097,0.142-0.178,0.201-0.273,0.136c-0.095-0.064-0.06-0.174,0.073-0.368
					c0.239-0.349,0.509-0.72,0.736-1.026c0.236-0.319,0.473-0.603,0.6-0.777c0.292-0.401,2.169-2.828,2.328-3.062
					c0.159-0.235,0.286-0.46,0.34-0.572c0.033-0.068,0.055-0.17,0.104-0.229c0.048-0.059,0.11-0.03,0.173,0.023
					c0.089,0.074,0.205,0.258,0.743,0.778c0.117,0.113,0.659,0.603,0.787,0.751c0.054,0.062,0.112,0.151,0.046,0.231
					s-0.148,0.051-0.263-0.043c-0.089-0.073-0.317-0.241-0.514-0.31c-0.293-0.103-0.544-0.118-1.092,0.413
					c-0.186,0.181-1.188,1.424-1.371,1.669c-0.045,0.061-0.025,0.116,0.067,0.186c1.331,0.999,1.997,1.499,3.328,2.498
					c0.092,0.069,0.154,0.096,0.206,0.027c0.189-0.252,1.194-1.551,1.373-1.826c0.187-0.287,0.285-0.485,0.238-0.687
					c-0.037-0.16-0.065-0.258-0.02-0.313c0.036-0.044,0.088-0.056,0.165,0.007s0.243,0.289,0.854,0.853
					c0.239,0.221,0.726,0.671,0.814,0.745c0.101,0.083,0.242,0.199,0.164,0.294c-0.061,0.075-0.13,0.05-0.194,0.002
					c-0.126-0.095-0.3-0.23-0.492-0.332c-0.294-0.155-0.615-0.159-0.99,0.207c-0.192,0.188-1.06,1.284-1.264,1.556
					c-0.042,0.057,0.001,0.108,0.08,0.167c0.416,0.312,0.625,0.467,1.041,0.779c0.447,0.336,1.651,1.254,2.039,1.53
					c0.923,0.657,1.237,0.631,2.055-0.411c0.208-0.266,0.549-0.69,0.61-1.076c0.061-0.387-0.11-0.728-0.563-1.23
					c-0.122-0.135-0.157-0.199-0.098-0.27c0.067-0.081,0.168,0.003,0.294,0.109c0.289,0.244,1.083,1.045,1.291,1.306
					c0.271,0.339,0.198,0.429-0.108,0.805c-0.604,0.741-1.06,1.292-1.409,1.711c-0.35,0.42-0.613,0.735-0.842,1.049
					c-0.084,0.116-0.25,0.358-0.42,0.61c-0.163,0.242-0.339,0.541-0.488,0.755c-0.096,0.14-0.188,0.187-0.283,0.122
					c-0.068-0.046-0.079-0.117,0.01-0.247c0.111-0.162,0.173-0.312,0.215-0.425c0.092-0.25-0.161-0.521-0.52-0.835
					c-0.518-0.454-1.583-1.207-2.817-2.084C31.782,45.73,31.31,45.396,30.366,44.725z"/>
				<path fill="#00441F" d="M40.05,43.129c-0.307-0.273-0.596-0.844-0.221-1.259c0.296-0.328,0.812-0.326,1.232,0.067
					s0.565,0.937,0.244,1.292C40.951,43.623,40.395,43.436,40.05,43.129z"/>
				<path fill="#00441F" d="M38.484,35.165c-1.75-1.787-2.074-2.117-2.462-2.472c-0.412-0.377-0.685-0.473-1.108-0.22
					c-0.104,0.062-0.294,0.229-0.44,0.377c-0.115,0.117-0.202,0.159-0.284,0.078c-0.082-0.081-0.033-0.18,0.124-0.34
					c0.283-0.288,0.601-0.592,0.865-0.842c0.275-0.26,0.545-0.487,0.694-0.63c0.342-0.329,2.523-2.307,2.712-2.502
					c0.189-0.196,0.346-0.391,0.415-0.488c0.042-0.06,0.08-0.154,0.136-0.202c0.056-0.047,0.11-0.006,0.163,0.057
					c0.074,0.088,0.162,0.286,0.601,0.89c0.096,0.132,0.545,0.71,0.647,0.878c0.042,0.07,0.085,0.166,0.01,0.231
					s-0.151,0.021-0.247-0.092c-0.075-0.087-0.271-0.292-0.451-0.396c-0.268-0.155-0.508-0.216-1.118,0.191
					c-0.207,0.139-1.363,1.144-1.577,1.344c-0.053,0.05-0.041,0.107,0.038,0.192c1.135,1.218,1.702,1.828,2.837,3.046
					c0.079,0.084,0.134,0.123,0.194,0.066c0.221-0.207,1.387-1.266,1.602-1.498c0.224-0.242,0.349-0.415,0.334-0.619
					c-0.012-0.162-0.023-0.261,0.029-0.306c0.042-0.036,0.095-0.036,0.159,0.039s0.189,0.325,0.694,0.985
					c0.198,0.259,0.601,0.787,0.676,0.875c0.085,0.1,0.203,0.237,0.113,0.314c-0.07,0.061-0.132,0.024-0.187-0.034
					c-0.108-0.116-0.257-0.28-0.427-0.414c-0.261-0.206-0.569-0.271-0.987,0.01c-0.214,0.146-1.218,1.035-1.457,1.258
					c-0.049,0.046-0.014,0.105,0.053,0.177c0.354,0.38,0.533,0.57,0.887,0.951c0.381,0.41,1.405,1.526,1.738,1.866
					c0.793,0.811,1.101,0.846,2.049-0.002c0.242-0.216,0.635-0.56,0.752-0.921c0.117-0.361,0.004-0.723-0.357-1.295
					c-0.097-0.154-0.121-0.223-0.052-0.281c0.078-0.066,0.164,0.036,0.269,0.162c0.243,0.29,0.886,1.215,1.048,1.506
					c0.21,0.379,0.125,0.453-0.228,0.757c-0.696,0.601-1.222,1.043-1.622,1.38c-0.401,0.337-0.7,0.59-0.968,0.848
					c-0.099,0.095-0.296,0.296-0.497,0.506c-0.193,0.201-0.409,0.453-0.584,0.631c-0.114,0.115-0.21,0.144-0.292,0.063
					c-0.059-0.058-0.057-0.129,0.049-0.236c0.132-0.134,0.212-0.266,0.27-0.366c0.126-0.223-0.077-0.531-0.376-0.902
					c-0.432-0.537-1.348-1.467-2.407-2.549C39.7,36.406,39.294,35.992,38.484,35.165z"/>
				<path fill="#00441F" d="M48.083,35.477c-0.256-0.322-0.447-0.929-0.021-1.261c0.337-0.262,0.835-0.165,1.182,0.295
					s0.404,1.016,0.04,1.3C48.88,36.125,48.369,35.838,48.083,35.477z"/>
				<path fill="#00441F" d="M51.485,33.99c-0.224,0.017-0.302-0.027-0.511-0.322c-0.524-0.738-1.057-1.573-1.198-1.795
					c-0.133-0.208-0.206-0.378-0.123-0.438c0.093-0.066,0.188,0.048,0.264,0.156c0.123,0.175,0.363,0.429,0.575,0.622
					c0.923,0.84,1.762,0.798,2.39,0.383c0.911-0.603,0.833-1.729,0.372-2.47c-0.427-0.685-0.979-1.242-2.466-1.551
					c-0.33-0.068-0.495-0.102-0.827-0.166c-1.984-0.382-3.083-1-3.851-2.09c-1.043-1.48-0.708-3.329,0.979-4.411
					c0.79-0.506,1.404-0.672,1.771-0.773c0.125-0.035,0.213-0.031,0.272,0.067c0.11,0.183,0.309,0.621,0.971,1.721
					c0.187,0.311,0.22,0.443,0.125,0.5c-0.083,0.05-0.17-0.012-0.272-0.181c-0.077-0.126-0.404-0.527-0.877-0.738
					c-0.343-0.153-0.957-0.362-1.737,0.141c-0.889,0.573-1.025,1.525-0.472,2.343c0.424,0.627,1.02,0.912,2.524,1.172
					c0.202,0.034,0.304,0.052,0.505,0.087c2.177,0.385,3.219,1.105,4.021,2.448c0.489,0.82,0.834,1.94,0.5,3.049
					c-0.23,0.763-0.714,1.251-1.244,1.604C52.599,33.735,52.088,33.943,51.485,33.99z"/>
				<path fill="#00441F" d="M56.524,29.797c-0.202-0.358-0.299-0.986,0.165-1.239c0.367-0.2,0.838-0.02,1.108,0.488
					s0.242,1.063-0.156,1.279C57.203,30.565,56.75,30.199,56.524,29.797z"/>
				<path fill="#00441F" d="M60.389,26.492c0.564,1.153,0.884,1.477,1.149,1.484c0.226,0.006,0.438-0.072,0.612-0.149
					c0.12-0.053,0.198-0.051,0.238,0.04c0.053,0.12-0.031,0.192-0.183,0.26c-0.702,0.312-1.151,0.471-1.354,0.567
					c-0.096,0.045-0.58,0.329-1.132,0.604c-0.138,0.069-0.239,0.103-0.306-0.03c-0.044-0.088,0.004-0.15,0.111-0.203
					c0.139-0.069,0.328-0.179,0.445-0.312c0.221-0.249,0.057-0.704-0.556-1.998c-1.658-3.528-2.485-5.297-4.13-8.83
					c-0.143-0.296-0.204-0.521-0.076-0.583c0.141-0.067,0.352,0.069,0.693,0.236c0.244,0.12,3.323,1.658,5.979,3.168
					c1.242,0.707,3.657,2.353,3.942,2.532c0.023-0.008,0.035-0.012,0.059-0.021c-1.03-2.771-1.547-4.158-2.588-6.924
					c-0.349-0.941-0.574-1.197-0.943-1.235c-0.229-0.023-0.549,0.093-0.733,0.162c-0.158,0.059-0.228,0.033-0.263-0.06
					c-0.046-0.123,0.092-0.193,0.29-0.266c0.688-0.253,1.344-0.429,1.624-0.524c0.146-0.05,0.635-0.269,1.291-0.48
					c0.174-0.056,0.313-0.083,0.354,0.043c0.03,0.094-0.035,0.165-0.195,0.216c-0.133,0.043-0.244,0.077-0.384,0.177
					c-0.33,0.237-0.327,0.61-0.044,1.487c1.273,3.953,1.915,5.931,3.204,9.878c0.117,0.342,0.12,0.499,0.021,0.532
					c-0.122,0.042-0.315-0.089-0.497-0.213c-1.008-0.691-3.232-2.175-5.105-3.238c-1.963-1.116-4.181-2.362-4.534-2.542
					c-0.015,0.007-0.022,0.011-0.037,0.018C58.565,22.767,59.174,24.007,60.389,26.492z"/>
				<path fill="#00441F" d="M66.851,16.093c-0.381-1.26-0.1-3.105,1.956-3.635c1.715-0.442,3.023,0.397,3.403,2.117
					c0.375,1.703-0.345,3.244-1.962,3.663C68.442,18.704,67.251,17.416,66.851,16.093z M68.733,13.004
					c-0.635,0.166-1.254,0.851-0.763,2.576c0.378,1.33,1.44,2.346,2.35,2.113c0.43-0.11,1.24-0.595,0.76-2.611
					C70.726,13.593,69.733,12.743,68.733,13.004z"/>
				<path fill="#00441F" d="M79.645,10.768c0.264-0.028,0.337,0.016,0.346,0.098c0.01,0.098-0.032,0.234-0.065,0.304
					c-0.954,2.009-2.023,8.797-1.878,10.904c0.02,0.28,0.062,0.389,0.094,0.601c0.05,0.325-0.778,1.139-1.293,1.229
					c-0.126,0.022-0.169-0.02-0.195-0.166c-0.029-0.162-0.049-0.41-0.04-0.678c0.057-1.599,0.76-6.667,2.164-10.667
					c-1.406,0.172-2.106,0.275-3.503,0.515c-0.377,0.064-0.939,0.199-1.211,0.518c-0.204,0.24-0.277,0.79-0.252,1.053
					c0.012,0.132-0.01,0.219-0.089,0.235c-0.092,0.018-0.12-0.059-0.152-0.22c-0.12-0.597-0.296-2.523-0.329-2.685
					c-0.032-0.161,0.01-0.237,0.093-0.253s0.429,0.072,1.889-0.173C76.984,11.084,77.87,10.96,79.645,10.768z"/>
				<path fill="#00441F" d="M89.352,17.496c0.227,0.005,0.403,0.042,0.397,0.239c-0.007,0.23-0.227,0.282-0.572,0.35
					c-0.492,0.097-2.781,0.64-3.203,0.804c-0.238,0.092-0.436,0.277-0.534,0.281s-0.128-0.127-0.109-0.292
					c0.057-0.457,0.085-0.685,0.145-1.142c0.03-0.198,0.082-0.217,0.295-0.224C87.203,17.468,87.919,17.465,89.352,17.496z"/>
				<path fill="#00441F" d="M96.307,15.545c0.299-2.482,0.354-2.942,0.391-3.467c0.038-0.558-0.051-0.827-0.48-0.997
					c-0.105-0.042-0.34-0.086-0.533-0.106c-0.153-0.016-0.234-0.057-0.223-0.172c0.012-0.114,0.109-0.137,0.318-0.115
					c0.375,0.039,0.785,0.092,1.123,0.14c0.352,0.05,0.676,0.116,0.868,0.141c0.442,0.058,3.195,0.496,3.452,0.517
					c0.259,0.021,0.498,0.019,0.611,0.01c0.069-0.005,0.162-0.037,0.23-0.023s0.072,0.081,0.057,0.162
					c-0.021,0.113-0.12,0.304-0.31,1.029c-0.041,0.158-0.207,0.869-0.272,1.055c-0.027,0.078-0.072,0.17-0.166,0.152
					s-0.105-0.103-0.078-0.249c0.021-0.113,0.058-0.392,0.028-0.596c-0.043-0.305-0.14-0.53-0.803-0.744
					c-0.227-0.072-1.653-0.33-1.927-0.369c-0.068-0.01-0.103,0.035-0.119,0.149c-0.237,1.647-0.356,2.472-0.594,4.12
					c-0.017,0.114-0.013,0.179,0.064,0.19c0.282,0.041,1.756,0.274,2.056,0.294c0.312,0.02,0.513,0.007,0.657-0.134
					c0.113-0.113,0.182-0.185,0.246-0.173c0.051,0.009,0.085,0.049,0.066,0.146s-0.131,0.353-0.325,1.162
					c-0.076,0.317-0.233,0.959-0.255,1.073c-0.024,0.129-0.057,0.309-0.168,0.288c-0.087-0.016-0.098-0.088-0.086-0.167
					c0.023-0.157,0.06-0.375,0.059-0.592c-0.001-0.333-0.136-0.61-0.592-0.755c-0.234-0.073-1.485-0.287-1.79-0.33
					c-0.063-0.009-0.087,0.054-0.101,0.151c-0.074,0.515-0.109,0.771-0.184,1.286c-0.08,0.554-0.31,2.052-0.366,2.524
					c-0.135,1.125,0.017,1.387,1.206,1.583c0.304,0.05,0.792,0.136,1.131-0.003c0.34-0.139,0.545-0.457,0.758-1.099
					c0.058-0.172,0.092-0.232,0.176-0.216c0.095,0.018,0.069,0.148,0.037,0.31c-0.073,0.371-0.379,1.454-0.501,1.763
					c-0.158,0.402-0.266,0.383-0.701,0.304c-0.86-0.156-1.499-0.284-1.982-0.381c-0.484-0.097-0.848-0.17-1.195-0.215
					c-0.127-0.017-0.393-0.042-0.663-0.066c-0.259-0.023-0.569-0.033-0.801-0.058c-0.15-0.016-0.229-0.072-0.218-0.187
					c0.009-0.082,0.062-0.127,0.202-0.112c0.174,0.019,0.32,0.001,0.428-0.018c0.236-0.042,0.341-0.396,0.441-0.862
					c0.145-0.674,0.3-1.968,0.48-3.471C96.1,17.269,96.168,16.695,96.307,15.545z"/>
				<path fill="#00441F" d="M101.736,23.157c0.089-0.401,0.428-0.934,0.935-0.817c0.399,0.092,0.628,0.537,0.49,1.095
					s-0.525,0.955-0.958,0.855C101.724,24.18,101.637,23.607,101.736,23.157z"/>
				<path fill="#00441F" d="M107.619,17.83c0.699-2.401,0.829-2.845,0.95-3.356c0.129-0.543,0.084-0.826-0.315-1.064
					c-0.098-0.059-0.325-0.142-0.514-0.193c-0.148-0.04-0.219-0.091-0.188-0.203c0.03-0.111,0.133-0.118,0.335-0.063
					c0.365,0.1,0.764,0.219,1.091,0.322c0.341,0.107,0.649,0.225,0.838,0.282c0.43,0.13,3.091,1.014,3.343,1.078
					c0.253,0.064,0.489,0.1,0.604,0.11c0.069,0.006,0.169-0.008,0.235,0.016c0.067,0.024,0.06,0.09,0.031,0.167
					c-0.04,0.108-0.171,0.285-0.478,0.966c-0.066,0.148-0.344,0.823-0.438,0.995c-0.039,0.072-0.103,0.157-0.192,0.125
					s-0.087-0.121-0.036-0.26c0.039-0.108,0.117-0.376,0.121-0.583c0.007-0.307-0.051-0.547-0.675-0.867
					c-0.212-0.108-1.588-0.597-1.853-0.681c-0.066-0.021-0.105,0.018-0.141,0.128c-0.503,1.587-0.756,2.381-1.259,3.968
					c-0.035,0.11-0.042,0.175,0.032,0.198c0.274,0.086,1.699,0.561,1.993,0.629c0.307,0.071,0.514,0.092,0.679-0.023
					c0.13-0.091,0.207-0.152,0.269-0.13c0.049,0.018,0.074,0.063,0.04,0.155s-0.188,0.328-0.512,1.093
					c-0.127,0.3-0.385,0.909-0.424,1.018c-0.045,0.124-0.105,0.295-0.213,0.256c-0.083-0.03-0.083-0.103-0.059-0.179
					c0.048-0.151,0.117-0.36,0.151-0.574c0.053-0.329-0.036-0.627-0.466-0.845c-0.221-0.111-1.426-0.526-1.722-0.619
					c-0.062-0.02-0.095,0.04-0.124,0.133c-0.157,0.496-0.235,0.743-0.393,1.238c-0.169,0.533-0.639,1.976-0.772,2.433
					c-0.318,1.088-0.209,1.37,0.94,1.759c0.293,0.1,0.767,0.264,1.126,0.183c0.359-0.081,0.615-0.354,0.93-0.957
					c0.085-0.162,0.132-0.215,0.212-0.185c0.092,0.034,0.046,0.158-0.012,0.312c-0.133,0.354-0.618,1.372-0.789,1.656
					c-0.223,0.371-0.324,0.334-0.744,0.184c-0.829-0.297-1.443-0.526-1.909-0.702c-0.465-0.175-0.812-0.308-1.148-0.409
					c-0.124-0.037-0.381-0.104-0.646-0.172c-0.254-0.065-0.563-0.127-0.789-0.189c-0.146-0.041-0.21-0.107-0.18-0.218
					c0.021-0.08,0.079-0.115,0.215-0.078c0.171,0.047,0.316,0.052,0.426,0.051c0.241-0.003,0.406-0.333,0.581-0.777
					c0.252-0.641,0.614-1.894,1.038-3.347C107.134,19.498,107.295,18.942,107.619,17.83z"/>
				<path fill="#00441F" d="M111.775,26.241c0.153-0.381,0.578-0.852,1.062-0.651c0.383,0.158,0.537,0.637,0.31,1.166
					s-0.673,0.854-1.088,0.682C111.6,27.249,111.604,26.669,111.775,26.241z"/>
				<path fill="#00441F" d="M121.838,19.325c-0.758-0.357-1.138-0.531-1.903-0.866c-0.748-0.319-1.094-0.38-1.431-0.136
					c-0.229,0.165-0.372,0.319-0.451,0.428c-0.08,0.109-0.145,0.152-0.22,0.119c-0.087-0.039-0.079-0.125-0.005-0.29
					c0.107-0.24,0.966-1.499,1.044-1.607c0.127-0.175,0.206-0.25,0.283-0.215c0.103,0.046,0.17,0.254,0.472,0.434
					c0.351,0.209,0.824,0.476,1.246,0.68c2.022,0.981,3.019,1.511,4.975,2.652c0.396,0.23,0.697,0.362,0.895,0.434
					c0.198,0.073,0.324,0.1,0.373,0.13c0.086,0.052,0.047,0.144-0.082,0.355c-0.18,0.294-0.804,1.267-1.031,1.607
					c-0.088,0.131-0.172,0.203-0.243,0.16c-0.095-0.058-0.074-0.141,0.041-0.36c0.032-0.065,0.048-0.098,0.08-0.163
					c0.197-0.381,0.115-0.981-0.958-1.635c-0.607-0.371-0.914-0.553-1.528-0.908c-1.288,2.373-1.932,3.56-3.22,5.933
					c-0.723,1.332-1.341,2.478-1.627,3.126c-0.187,0.422-0.294,0.774-0.015,1.006c0.131,0.108,0.345,0.267,0.501,0.355
					c0.115,0.065,0.143,0.138,0.102,0.209c-0.057,0.1-0.167,0.096-0.281,0.031c-0.686-0.387-1.32-0.784-1.615-0.939
					c-0.242-0.127-0.932-0.426-1.357-0.637c-0.139-0.068-0.191-0.148-0.141-0.251c0.036-0.074,0.104-0.1,0.232-0.036
					c0.16,0.079,0.301,0.114,0.41,0.134c0.24,0.044,0.473-0.246,0.723-0.65c0.362-0.586,0.963-1.744,1.653-3.092
					C119.99,22.929,120.606,21.728,121.838,19.325z"/>
				<path fill="#00441F" d="M121.309,31.025c0.215-0.351,0.714-0.742,1.164-0.458c0.356,0.225,0.434,0.726,0.121,1.209
					s-0.813,0.728-1.199,0.485C120.968,31.993,121.067,31.419,121.309,31.025z"/>
				<path fill="#00441F" d="M126.131,32.827c-0.734,1.054-0.854,1.493-0.727,1.73c0.108,0.203,0.286,0.355,0.441,0.472
					c0.106,0.081,0.144,0.152,0.084,0.23c-0.079,0.104-0.187,0.064-0.322-0.038c-0.63-0.474-0.996-0.794-1.183-0.928
					c-0.088-0.063-0.581-0.354-1.099-0.707c-0.129-0.088-0.211-0.163-0.128-0.285c0.056-0.082,0.138-0.068,0.237,0
					c0.13,0.089,0.319,0.203,0.495,0.243c0.329,0.075,0.648-0.292,1.481-1.457c2.275-3.165,3.417-4.747,5.704-7.903
					c0.189-0.269,0.356-0.434,0.476-0.35c0.13,0.092,0.116,0.346,0.14,0.728c0.017,0.273,0.211,3.739,0.231,6.838
					c0.01,1.449-0.203,4.409-0.215,4.752c0.02,0.017,0.03,0.025,0.05,0.042c1.926-2.244,2.886-3.367,4.803-5.618
					c0.654-0.761,0.765-1.084,0.607-1.438c-0.098-0.218-0.363-0.451-0.518-0.584c-0.134-0.115-0.147-0.189-0.083-0.265
					c0.085-0.101,0.218-0.009,0.385,0.135c0.578,0.5,1.069,1.008,1.299,1.217c0.12,0.109,0.571,0.451,1.101,0.95
					c0.141,0.132,0.233,0.246,0.143,0.342c-0.068,0.072-0.162,0.047-0.291-0.074c-0.107-0.101-0.194-0.188-0.355-0.269
					c-0.382-0.189-0.715-0.008-1.347,0.663c-2.85,3.023-4.271,4.538-7.108,7.573c-0.243,0.268-0.38,0.344-0.462,0.269
					c-0.1-0.091-0.083-0.327-0.066-0.55c0.093-1.24,0.262-3.95,0.248-6.131c-0.015-2.287-0.032-4.853-0.051-5.253
					c-0.014-0.01-0.021-0.015-0.035-0.025C128.497,29.417,127.71,30.555,126.131,32.827z"/>
				<path fill="#00441F" d="M138.662,33.706c0.921-0.941,2.705-1.557,4.259,0.107c1.296,1.388,1.242,3.012-0.089,4.165
					c-1.317,1.142-3.075,1.172-4.298-0.135C137.168,36.383,137.695,34.694,138.662,33.706z M142.396,34
					c-0.48-0.512-1.415-0.764-2.692,0.496c-0.984,0.971-1.333,2.425-0.646,3.163c0.324,0.349,1.182,0.88,2.724-0.505
					C142.92,36.129,143.155,34.807,142.396,34z"/>
				<path fill="#00441F" d="M136.39,45.323c-0.018-0.229,0.065-0.336,0.217-0.463c0.593-0.496,1.33-1.056,1.639-1.247
					c0.169-0.104,0.281-0.149,0.332-0.087s0.002,0.155-0.1,0.239c-0.812,0.671-1.281,1.873-0.48,2.909
					c0.785,1.016,2.101,1.392,3.69,0.25c1.79-1.286,1.407-3.117,1.105-3.757c-0.16-0.34-0.162-0.45-0.059-0.531
					c0.091-0.071,0.217-0.041,0.339,0.062c0.5,0.418,2.063,1.245,3.618,0.113c0.559-0.406,1.364-1.588,0.416-2.826
					c-0.734-0.958-1.908-1.173-2.66-0.559c-0.152,0.125-0.228,0.109-0.274,0.051c-0.037-0.045-0.023-0.112,0.103-0.238
					c0.369-0.367,0.915-0.884,1.207-1.125c0.114-0.094,0.175-0.127,0.373-0.035c0.515,0.238,1.365,0.745,2.141,1.769
					c1.794,2.368,0.703,3.808,0.066,4.247c-1.327,0.915-3.137,0.285-3.663-0.045c-0.011,0.008-0.016,0.012-0.026,0.02
					c0.406,1.027,0.454,2.813-1.191,3.932c-1.904,1.294-4.363,1.046-5.892-0.924C136.733,46.359,136.417,45.681,136.39,45.323z"/>
			</g>
		</g>
		<g>
			<g>
				<path fill="#FFFFFF" stroke="#FFFFFF" stroke-width="0.2981" d="M58.782,150.598c0.466-0.984,0.551-1.163,0.635-1.376
					c0.091-0.227,0.081-0.355-0.116-0.509c-0.048-0.037-0.161-0.103-0.255-0.148c-0.075-0.036-0.11-0.069-0.088-0.114
					s0.075-0.034,0.177,0.015c0.359,0.174,0.78,0.394,0.923,0.46c0.232,0.108,0.76,0.327,0.972,0.422
					c0.432,0.192,0.874,0.433,1.146,0.832c0.141,0.207,0.28,0.659,0.096,1.103c-0.203,0.49-1.464,0.908-1.561,1.079
					c-0.14,0.246,0.586,1.817,0.86,2.402c0.258,0.551,0.551,0.719,0.656,0.782c0.077,0.046,0.143,0.077,0.203,0.101
					s0.082,0.058,0.069,0.091c-0.021,0.054-0.077,0.045-0.167,0.01c-0.286-0.11-0.43-0.164-0.715-0.277
					c-0.42-0.167-0.594-0.279-0.75-0.452c-0.258-0.285-0.411-0.71-0.603-1.393c-0.137-0.487-0.276-1.082-0.323-1.22
					c-0.019-0.055-0.06-0.083-0.11-0.105c-0.248-0.116-0.371-0.174-0.617-0.293c-0.036-0.017-0.063-0.015-0.081,0.025
					c-0.017,0.036-0.025,0.055-0.042,0.091c-0.277,0.605-0.511,1.124-0.601,1.411c-0.062,0.197-0.085,0.364,0.125,0.49
					c0.104,0.063,0.26,0.146,0.349,0.186c0.059,0.026,0.08,0.061,0.066,0.093c-0.021,0.046-0.08,0.041-0.176-0.002
					c-0.429-0.191-0.967-0.464-1.077-0.516c-0.14-0.065-0.611-0.263-0.904-0.404c-0.095-0.046-0.138-0.089-0.116-0.134
					c0.015-0.031,0.055-0.036,0.143,0.006c0.109,0.053,0.204,0.08,0.275,0.1c0.158,0.042,0.265-0.08,0.38-0.254
					c0.166-0.25,0.408-0.767,0.69-1.361C58.459,151.28,58.566,151.053,58.782,150.598z M59.376,151.497
					c-0.033,0.071-0.029,0.108,0.011,0.147c0.119,0.114,0.333,0.229,0.511,0.309c0.286,0.128,0.391,0.144,0.558,0.114
					c0.277-0.051,0.615-0.266,0.847-0.806c0.4-0.934-0.134-1.483-0.54-1.666c-0.172-0.077-0.299-0.126-0.377-0.139
					c-0.054-0.008-0.08,0.01-0.104,0.062C59.92,150.31,59.738,150.706,59.376,151.497z"/>
				<path fill="#FFFFFF" stroke="#FFFFFF" stroke-width="0.2981" d="M63.101,153.143c0.444-1.142,1.794-2.277,3.905-1.565
					c1.752,0.591,2.571,1.891,2.116,3.466c-0.455,1.575-2.051,2.482-3.986,1.827C62.949,156.13,62.642,154.323,63.101,153.143z
					 M68.011,154.988c0.468-1.533-0.159-2.76-1.318-3.155c-0.813-0.277-1.892-0.189-2.513,1.481
					c-0.519,1.396-0.067,2.837,1.39,3.323C66.101,156.814,67.406,156.967,68.011,154.988z"/>
				<path fill="#FFFFFF" stroke="#FFFFFF" stroke-width="0.2981" d="M70.798,154.988c0.278-1.053,0.33-1.249,0.374-1.474
					c0.048-0.239,0.013-0.362-0.205-0.477c-0.053-0.028-0.173-0.07-0.273-0.098c-0.079-0.021-0.118-0.045-0.104-0.094
					s0.067-0.05,0.174-0.021c0.378,0.104,0.824,0.242,0.967,0.279c0.351,0.09,0.637,0.138,0.881,0.197
					c1.3,0.315,1.385,1.033,1.304,1.403c-0.125,0.574-1.027,1.053-1.027,1.053c-0.004,0.073,1.212,0.992,1.041,1.813
					c-0.157,0.75-0.971,1.406-2.399,1.063c-0.094-0.022-0.319-0.09-0.538-0.154c-0.227-0.067-0.459-0.141-0.575-0.17
					c-0.085-0.021-0.261-0.062-0.444-0.105c-0.175-0.043-0.382-0.087-0.537-0.129c-0.1-0.027-0.149-0.065-0.136-0.114
					c0.009-0.034,0.048-0.045,0.141-0.02c0.115,0.031,0.211,0.044,0.283,0.05c0.16,0.012,0.244-0.133,0.325-0.324
					c0.117-0.276,0.259-0.826,0.427-1.463C70.606,155.718,70.67,155.476,70.798,154.988z M71.655,155.329
					c-0.014,0.056,0.005,0.078,0.033,0.092c0.063,0.031,0.173,0.064,0.344,0.106c0.245,0.06,0.417,0.068,0.566-0.002
					c0.221-0.104,0.397-0.331,0.476-0.672c0.108-0.468-0.035-1.141-0.655-1.293c-0.101-0.024-0.169-0.044-0.241-0.045
					c-0.051,0-0.075,0.025-0.094,0.102C71.914,154.303,71.827,154.644,71.655,155.329z M72.504,156.125
					c-0.133-0.141-0.292-0.231-0.579-0.316c-0.132-0.04-0.208-0.058-0.32-0.086c-0.03-0.008-0.048,0.003-0.056,0.037
					c-0.165,0.658-0.248,0.988-0.412,1.647c-0.115,0.459-0.122,0.585,0.104,0.735c0.189,0.128,0.366,0.179,0.543,0.221
					c0.348,0.083,0.973,0.048,1.136-0.68C73.016,157.251,72.981,156.629,72.504,156.125z"/>
				<path fill="#FFFFFF" stroke="#FFFFFF" stroke-width="0.2981" d="M75.901,156.13c0.198-1.071,0.234-1.269,0.261-1.496
					c0.03-0.242-0.014-0.362-0.239-0.459c-0.055-0.023-0.176-0.057-0.278-0.076c-0.08-0.016-0.122-0.039-0.112-0.088
					s0.063-0.054,0.172-0.033c0.196,0.038,0.408,0.084,0.585,0.12c0.184,0.038,0.353,0.08,0.454,0.098
					c0.232,0.041,1.683,0.279,1.819,0.289c0.136,0.01,0.261,0.008,0.319,0.004c0.036-0.003,0.084-0.019,0.121-0.014
					c0.037,0.005,0.039,0.035,0.034,0.071c-0.007,0.05-0.05,0.139-0.124,0.454c-0.016,0.068-0.076,0.377-0.104,0.458
					c-0.012,0.034-0.035,0.079-0.086,0.071c-0.052-0.008-0.06-0.049-0.051-0.112c0.007-0.049,0.016-0.172-0.007-0.261
					c-0.034-0.133-0.093-0.229-0.453-0.328c-0.122-0.033-0.889-0.171-1.035-0.195c-0.037-0.006-0.054,0.015-0.063,0.063
					c-0.122,0.714-0.183,1.07-0.305,1.784c-0.008,0.05-0.006,0.078,0.039,0.086c0.166,0.028,1.032,0.168,1.207,0.181
					c0.182,0.013,0.298,0.009,0.376-0.053c0.061-0.049,0.097-0.082,0.134-0.076c0.03,0.004,0.051,0.024,0.044,0.067
					c-0.006,0.042-0.059,0.155-0.135,0.508c-0.03,0.138-0.093,0.419-0.1,0.469c-0.008,0.057-0.02,0.134-0.088,0.124
					c-0.054-0.008-0.062-0.039-0.059-0.072c0.006-0.068,0.016-0.166,0.005-0.261c-0.016-0.146-0.106-0.271-0.381-0.341
					c-0.141-0.036-0.89-0.163-1.071-0.194c-0.038-0.007-0.05,0.021-0.058,0.063c-0.038,0.224-0.057,0.334-0.095,0.558
					c-0.041,0.239-0.16,0.888-0.188,1.093c-0.066,0.488,0.041,0.624,0.838,0.749c0.204,0.032,0.531,0.083,0.747,0.028
					c0.216-0.056,0.33-0.195,0.426-0.476c0.026-0.075,0.047-0.104,0.101-0.096c0.062,0.009,0.053,0.066,0.043,0.137
					c-0.023,0.164-0.151,0.64-0.212,0.774c-0.079,0.176-0.151,0.167-0.451,0.123c-0.59-0.087-1.025-0.169-1.357-0.234
					s-0.574-0.123-0.809-0.165c-0.086-0.016-0.264-0.04-0.449-0.07c-0.178-0.029-0.387-0.057-0.543-0.087
					c-0.102-0.02-0.152-0.055-0.143-0.104c0.007-0.034,0.043-0.05,0.137-0.032c0.117,0.022,0.213,0.03,0.285,0.03
					c0.16,0,0.233-0.149,0.299-0.347c0.095-0.285,0.196-0.847,0.316-1.494C75.764,156.871,75.809,156.626,75.901,156.13z"/>
				<path fill="#FFFFFF" stroke="#FFFFFF" stroke-width="0.2981" d="M80.641,156.837c0.124-1.082,0.148-1.28,0.159-1.509
					c0.013-0.244-0.039-0.362-0.269-0.443c-0.056-0.02-0.18-0.042-0.282-0.055c-0.081-0.01-0.124-0.03-0.118-0.08
					s0.06-0.06,0.169-0.046c0.387,0.048,0.846,0.123,0.999,0.14c0.249,0.026,0.805,0.061,1.032,0.081
					c0.461,0.043,0.947,0.126,1.325,0.417c0.195,0.15,0.469,0.536,0.438,1.015c-0.034,0.528-1.075,1.328-1.112,1.527
					c-0.054,0.282,1.114,1.527,1.553,1.993c0.413,0.438,0.741,0.501,0.859,0.527c0.086,0.019,0.157,0.026,0.221,0.029
					s0.094,0.026,0.093,0.062c-0.002,0.058-0.06,0.073-0.155,0.069c-0.301-0.013-0.452-0.02-0.753-0.035
					c-0.443-0.022-0.638-0.071-0.837-0.185c-0.33-0.187-0.608-0.542-1.001-1.126c-0.28-0.417-0.595-0.935-0.682-1.05
					c-0.035-0.046-0.081-0.059-0.134-0.063c-0.266-0.03-0.398-0.044-0.664-0.076c-0.038-0.004-0.063,0.008-0.067,0.051
					c-0.004,0.04-0.006,0.059-0.01,0.099c-0.067,0.663-0.122,1.228-0.116,1.528c0.004,0.207,0.035,0.374,0.269,0.425
					c0.117,0.025,0.289,0.053,0.384,0.062c0.063,0.006,0.092,0.03,0.089,0.065c-0.004,0.05-0.063,0.069-0.166,0.06
					c-0.458-0.042-1.039-0.127-1.157-0.14c-0.15-0.017-0.65-0.049-0.965-0.087c-0.103-0.013-0.155-0.043-0.149-0.093
					c0.004-0.035,0.04-0.052,0.134-0.04c0.118,0.015,0.215,0.012,0.287,0.007c0.159-0.011,0.221-0.165,0.273-0.366
					c0.075-0.291,0.137-0.855,0.212-1.51C80.556,157.589,80.584,157.338,80.641,156.837z M81.474,157.496
					c-0.008,0.078,0.006,0.109,0.056,0.133c0.146,0.069,0.38,0.111,0.571,0.129c0.305,0.028,0.409,0.008,0.554-0.074
					c0.242-0.138,0.485-0.448,0.531-1.034c0.079-1.013-0.59-1.36-1.024-1.401c-0.184-0.018-0.316-0.023-0.392-0.01
					c-0.053,0.01-0.071,0.035-0.077,0.092C81.605,156.196,81.562,156.63,81.474,157.496z"/>
				<path fill="#FFFFFF" stroke="#FFFFFF" stroke-width="0.2981" d="M87.096,155.599c-0.44,0.002-0.66,0-1.101-0.005
					c-0.429-0.003-0.607,0.023-0.726,0.176c-0.079,0.104-0.122,0.189-0.14,0.245c-0.018,0.057-0.041,0.083-0.086,0.081
					c-0.052-0.003-0.064-0.041-0.061-0.119c0.006-0.113,0.18-0.757,0.197-0.813c0.027-0.092,0.052-0.131,0.096-0.129
					c0.059,0.003,0.129,0.075,0.31,0.1c0.21,0.028,0.492,0.055,0.734,0.063c1.163,0.038,1.743,0.045,2.906,0.033
					c0.235-0.002,0.402-0.024,0.507-0.043c0.106-0.019,0.168-0.038,0.197-0.039c0.052-0.001,0.059,0.039,0.061,0.146
					c0.003,0.15,0.001,0.656-0.004,0.833c-0.002,0.068-0.021,0.112-0.065,0.113c-0.061,0.001-0.074-0.032-0.083-0.14
					c-0.004-0.031-0.006-0.048-0.01-0.079c-0.019-0.186-0.222-0.378-0.88-0.389c-0.372-0.006-0.558-0.01-0.93-0.021
					c-0.008,1.173-0.013,1.761-0.022,2.935c-0.005,0.658-0.009,1.224,0.026,1.53c0.023,0.2,0.071,0.359,0.308,0.389
					c0.11,0.015,0.285,0.026,0.403,0.026c0.087,0,0.126,0.021,0.126,0.057c0,0.05-0.063,0.074-0.15,0.074
					c-0.523,0.001-1.023-0.027-1.245-0.03c-0.182-0.003-0.682,0.012-0.999,0.003c-0.104-0.003-0.157-0.03-0.155-0.08
					c0.001-0.035,0.034-0.054,0.129-0.051c0.119,0.004,0.214-0.009,0.285-0.021c0.157-0.025,0.208-0.185,0.237-0.39
					c0.043-0.298,0.058-0.865,0.072-1.523C87.058,157.357,87.071,156.771,87.096,155.599z"/>
				<path fill="#FFFFFF" stroke="#FFFFFF" stroke-width="0.2981" d="M90.521,157.888c-0.034-1.224,0.751-2.796,2.945-2.956
					c1.821-0.133,3.072,0.749,3.264,2.378c0.191,1.628-0.923,3.082-2.936,3.227C91.52,160.7,90.556,159.153,90.521,157.888z
					 M95.695,157.688c-0.162-1.594-1.213-2.481-2.419-2.396c-0.846,0.06-1.787,0.556-1.711,2.336
					c0.063,1.487,1.022,2.643,2.536,2.526C94.653,160.111,95.905,159.744,95.695,157.688z"/>
				<path fill="#FFFFFF" stroke="#FFFFFF" stroke-width="0.2981" d="M101.124,157.631c-0.038,0.007-0.05,0.022-0.058,0.068
					c-0.093,0.433-0.142,0.65-0.239,1.083c-0.047,0.19-0.057,0.366-0.042,0.451c0.021,0.126,0.11,0.208,0.353,0.165
					c0.047-0.008,0.068-0.012,0.115-0.021c0.095-0.017,0.119-0.009,0.127,0.032c0.01,0.057-0.035,0.083-0.121,0.099
					c-0.25,0.044-0.593,0.077-0.836,0.117c-0.086,0.015-0.516,0.107-0.924,0.17c-0.103,0.016-0.146,0.008-0.155-0.05
					c-0.006-0.041,0.021-0.061,0.085-0.07c0.07-0.011,0.175-0.035,0.237-0.053c0.354-0.098,0.468-0.357,0.564-0.737
					c0.487-1.905,0.705-2.858,1.093-4.764c0.047-0.221,0.077-0.306,0.149-0.32c0.065-0.013,0.119,0.045,0.225,0.191
					c0.251,0.352,2.037,2.96,2.769,3.909c0.435,0.563,0.686,0.613,0.854,0.606c0.119-0.005,0.241-0.029,0.334-0.052
					c0.063-0.015,0.103-0.018,0.114,0.03c0.014,0.057-0.055,0.089-0.342,0.157c-0.28,0.066-0.854,0.209-1.473,0.318
					c-0.14,0.024-0.234,0.043-0.245-0.006c-0.009-0.041,0.026-0.059,0.094-0.086c0.049-0.02,0.096-0.1,0.038-0.176
					c-0.377-0.54-0.564-0.813-0.931-1.357c-0.022-0.032-0.047-0.039-0.085-0.031C102.146,157.446,101.805,157.509,101.124,157.631z
					 M102.607,156.983c0.038-0.008,0.041-0.031,0.029-0.05c-0.413-0.638-0.615-0.956-1.016-1.599
					c-0.014-0.026-0.026-0.061-0.049-0.057c-0.021,0.004-0.032,0.042-0.034,0.071c-0.139,0.743-0.21,1.115-0.363,1.858
					c-0.003,0.029,0.008,0.051,0.038,0.045C101.771,157.151,102.051,157.097,102.607,156.983z"/>
				<path fill="#FFFFFF" stroke="#FFFFFF" stroke-width="0.2981" d="M105.772,155.121c-0.27-1.055-0.323-1.248-0.395-1.466
					c-0.075-0.232-0.16-0.325-0.406-0.318c-0.061,0.002-0.188,0.023-0.288,0.048c-0.08,0.02-0.125,0.018-0.137-0.031
					s0.036-0.075,0.144-0.102c0.381-0.094,0.837-0.188,0.987-0.228c0.244-0.064,0.782-0.234,1.004-0.296
					c0.45-0.126,0.935-0.222,1.396-0.085c0.238,0.069,0.634,0.332,0.775,0.79c0.156,0.507-0.539,1.627-0.504,1.824
					c0.051,0.281,1.597,1.028,2.178,1.306c0.547,0.261,0.88,0.202,1,0.185c0.088-0.014,0.161-0.03,0.222-0.051
					c0.062-0.021,0.098-0.012,0.109,0.021c0.019,0.055-0.032,0.087-0.124,0.118c-0.289,0.098-0.434,0.144-0.724,0.237
					c-0.427,0.139-0.631,0.165-0.858,0.131c-0.377-0.056-0.767-0.288-1.346-0.692c-0.414-0.289-0.895-0.658-1.019-0.734
					c-0.049-0.03-0.097-0.027-0.149-0.013c-0.262,0.067-0.39,0.102-0.651,0.167c-0.037,0.01-0.058,0.031-0.046,0.073
					c0.011,0.038,0.015,0.058,0.025,0.096c0.174,0.644,0.326,1.19,0.439,1.469c0.078,0.191,0.16,0.336,0.398,0.3
					c0.119-0.018,0.294-0.053,0.387-0.079c0.062-0.018,0.099-0.003,0.108,0.031c0.014,0.049-0.033,0.085-0.134,0.113
					c-0.446,0.125-1.026,0.254-1.143,0.284c-0.146,0.038-0.627,0.188-0.938,0.265c-0.101,0.025-0.16,0.015-0.172-0.034
					c-0.009-0.034,0.018-0.064,0.11-0.087c0.116-0.028,0.205-0.063,0.271-0.093c0.146-0.067,0.15-0.233,0.128-0.44
					c-0.033-0.298-0.178-0.85-0.341-1.487C105.957,155.854,105.897,155.609,105.772,155.121z M106.791,155.437
					c0.021,0.076,0.043,0.104,0.099,0.108c0.162,0.013,0.397-0.036,0.583-0.088c0.298-0.083,0.388-0.138,0.495-0.267
					c0.18-0.216,0.298-0.596,0.132-1.159c-0.287-0.975-1.043-1.057-1.466-0.939c-0.18,0.05-0.306,0.09-0.372,0.13
					c-0.047,0.028-0.054,0.06-0.039,0.114C106.449,154.176,106.564,154.596,106.791,155.437z"/>
				<path fill="#FFFFFF" stroke="#FFFFFF" stroke-width="0.2981" d="M112.63,154.325c0.312,0.862,0.482,1.326,0.682,1.391
					c0.163,0.053,0.379,0.033,0.964-0.189c0.397-0.151,0.689-0.276,0.803-0.528c0.055-0.121,0.069-0.344,0.033-0.477
					c-0.017-0.063-0.018-0.105,0.041-0.129c0.052-0.021,0.07,0.01,0.102,0.089c0.029,0.073,0.18,0.592,0.197,0.809
					c0.014,0.164-0.013,0.214-0.403,0.366c-0.542,0.212-0.94,0.351-1.28,0.465s-0.621,0.2-0.932,0.311
					c-0.083,0.029-0.249,0.095-0.427,0.16c-0.17,0.063-0.37,0.144-0.522,0.195c-0.099,0.033-0.156,0.027-0.172-0.021
					c-0.011-0.033,0.012-0.065,0.103-0.096c0.114-0.038,0.198-0.081,0.262-0.117c0.141-0.079,0.133-0.244,0.093-0.448
					c-0.058-0.295-0.246-0.833-0.461-1.455c-0.165-0.477-0.249-0.715-0.414-1.19c-0.356-1.028-0.421-1.218-0.51-1.429
					c-0.094-0.226-0.19-0.309-0.437-0.281c-0.061,0.007-0.148,0.027-0.24,0.059c-0.078,0.026-0.124,0.026-0.14-0.021
					s0.028-0.076,0.135-0.112c0.331-0.111,0.78-0.246,0.969-0.313c0.168-0.06,0.674-0.264,0.946-0.365
					c0.098-0.036,0.153-0.041,0.171,0.006s-0.022,0.073-0.106,0.104c-0.077,0.028-0.187,0.079-0.265,0.124
					c-0.176,0.101-0.192,0.238-0.122,0.479c0.064,0.219,0.136,0.408,0.506,1.432C112.376,153.614,112.459,153.852,112.63,154.325z"
					/>
				<path fill="#FFFFFF" stroke="#FFFFFF" stroke-width="0.2981" d="M115.576,149.996c-0.407,0.189-0.609,0.282-1.02,0.465
					c-0.398,0.18-0.553,0.279-0.599,0.468c-0.03,0.128-0.033,0.222-0.026,0.28c0.008,0.06-0.004,0.095-0.046,0.111
					c-0.05,0.02-0.075-0.009-0.104-0.082c-0.042-0.105-0.153-0.763-0.161-0.82c-0.013-0.095-0.008-0.146,0.034-0.162
					c0.055-0.022,0.153,0.014,0.331-0.041c0.207-0.063,0.476-0.157,0.703-0.253c1.093-0.46,1.636-0.703,2.713-1.213
					c0.218-0.104,0.365-0.192,0.455-0.255c0.091-0.063,0.141-0.109,0.168-0.122c0.048-0.023,0.071,0.013,0.118,0.109
					c0.066,0.136,0.276,0.594,0.345,0.756c0.026,0.063,0.027,0.115-0.014,0.135c-0.056,0.027-0.085,0.002-0.138-0.092
					c-0.017-0.027-0.023-0.041-0.04-0.068c-0.095-0.16-0.365-0.25-0.98,0.022c-0.349,0.154-0.525,0.233-0.876,0.382
					c0.483,1.069,0.725,1.603,1.207,2.673c0.271,0.601,0.507,1.117,0.667,1.38c0.104,0.172,0.213,0.298,0.446,0.223
					c0.108-0.034,0.277-0.098,0.388-0.148c0.081-0.037,0.127-0.034,0.142-0.002c0.021,0.046-0.028,0.093-0.109,0.13
					c-0.486,0.226-0.964,0.412-1.172,0.504c-0.17,0.075-0.626,0.301-0.924,0.428c-0.097,0.041-0.157,0.042-0.177-0.004
					c-0.014-0.032,0.006-0.064,0.095-0.103c0.111-0.047,0.195-0.099,0.257-0.14c0.135-0.091,0.118-0.256,0.06-0.455
					c-0.085-0.289-0.311-0.812-0.572-1.415C116.279,151.609,116.045,151.072,115.576,149.996z"/>
			</g>
		</g>
	</g>
</g>
</svg>
